<?xml version="1.0" encoding="UTF-8" standalone="no"?>
<!-- Generator: Adobe Illustrator 22.0.1, SVG Export Plug-In . SVG Version: 6.00 Build 0)  -->

<svg
   xmlns:dc="http://purl.org/dc/elements/1.1/"
   xmlns:cc="http://creativecommons.org/ns#"
   xmlns:rdf="http://www.w3.org/1999/02/22-rdf-syntax-ns#"
   xmlns:svg="http://www.w3.org/2000/svg"
   xmlns="http://www.w3.org/2000/svg"
   xmlns:sodipodi="http://sodipodi.sourceforge.net/DTD/sodipodi-0.dtd"
   xmlns:inkscape="http://www.inkscape.org/namespaces/inkscape"
   version="1.1"
   id="Calque_1"
   x="0px"
   y="0px"
   viewBox="0 0 306.8 59.1"
   xml:space="preserve"
   inkscape:version="0.48.1 "
   width="100%"
   height="100%"
   sodipodi:docname="TrapGateLogo.svg"><metadata
   id="metadata3293"><rdf:RDF><cc:Work
       rdf:about=""><dc:format>image/svg+xml</dc:format><dc:type
         rdf:resource="http://purl.org/dc/dcmitype/StillImage" /><dc:title></dc:title></cc:Work></rdf:RDF></metadata><defs
   id="defs3291"><inkscape:path-effect
     effect="bend_path"
     id="path-effect3532"
     is_visible="true"
     bendpath="m 80.050004,20.35 21.699996,0"
     prop_scale="1"
     scale_y_rel="false"
     vertical="false" /><inkscape:path-effect
     effect="bend_path"
     id="path-effect3532-3"
     is_visible="true"
     bendpath="m 85.973226,20.322272 21.699994,0"
     prop_scale="1"
     scale_y_rel="false"
     vertical="false" /></defs><sodipodi:namedview
   pagecolor="#ffffff"
   bordercolor="#666666"
   borderopacity="1"
   objecttolerance="10"
   gridtolerance="10"
   guidetolerance="10"
   inkscape:pageopacity="0"
   inkscape:pageshadow="2"
   inkscape:window-width="1280"
   inkscape:window-height="746"
   id="namedview3289"
   showgrid="false"
   showguides="true"
   inkscape:snap-global="true"
   inkscape:snap-bbox="true"
   inkscape:snap-grids="false"
   inkscape:guide-bbox="true"
   inkscape:snap-to-guides="false"
   inkscape:zoom="2"
   inkscape:cx="161.14978"
   inkscape:cy="44.130675"
   inkscape:window-x="-8"
   inkscape:window-y="-8"
   inkscape:window-maximized="1"
   inkscape:current-layer="layer1"><inkscape:grid
     type="xygrid"
     id="grid3296" /><sodipodi:guide
     position="0,0"
     orientation="0,306.8"
     id="guide3555" /><sodipodi:guide
     position="306.8,0"
     orientation="-59.1,0"
     id="guide3557" /><sodipodi:guide
     position="306.8,59.1"
     orientation="0,-306.8"
     id="guide3559" /><sodipodi:guide
     position="0,59.1"
     orientation="59.1,0"
     id="guide3561" /></sodipodi:namedview>
<style
   type="text/css"
   id="style3207">
	.st0{fill:#3C3C3B;}
	.st1{fill:#F49C1C;}
</style>













<g
   inkscape:groupmode="layer"
   id="layer2"
   inkscape:label="Original"
   style="display:inline"><g
     transform="translate(0,-0.09999806)"
     id="g3209"
     style="fill:#dddddd;fill-opacity:1"><path
       inkscape:connector-curvature="0"
       class="st0"
       d="M 63.3,58.9 V 46.5 H 64 v 11.8 h 4.8 V 59 c -0.1,-0.1 -5.5,-0.1 -5.5,-0.1 z"
       id="path3211"
       style="fill:#dddddd;fill-opacity:1" /><path
       inkscape:connector-curvature="0"
       class="st0"
       d="m 76.4,46.5 v 0.7 h -5.5 v 5.2 h 5.5 V 53 h -5.5 v 5.2 h 5.5 v 0.7 H 70.2 V 46.5 h 6.2 z"
       id="path3213"
       style="fill:#dddddd;fill-opacity:1" /><path
       inkscape:connector-curvature="0"
       class="st0"
       d="m 86.3,52 c -0.9,-0.3 -1.6,-0.7 -2.1,-1.2 -0.5,-0.5 -0.8,-1.1 -0.8,-1.9 0,-0.7 0.3,-1.3 0.8,-1.9 0.5,-0.5 1.1,-0.8 1.9,-0.8 0.7,0 1.3,0.3 1.9,0.8 0.3,0.3 0.5,0.6 0.6,0.9 L 88,48.1 C 87.9,47.8 87.8,47.6 87.5,47.4 87,47.2 86.6,47 86,47 85.5,47 85,47.2 84.6,47.6 84.2,48 84,48.4 84,49 c 0,0.5 0.2,1 0.6,1.4 0.4,0.3 0.8,0.7 1.5,1 1,0.3 1.8,0.8 2.5,1.5 0.7,0.7 1.1,1.6 1.1,2.6 0,1 -0.4,1.9 -1.1,2.6 -0.7,0.7 -1.6,1.1 -2.6,1.1 -1,0 -1.9,-0.4 -2.6,-1.1 -0.6,-0.6 -0.9,-1.2 -1,-2 l 0.7,-0.2 c 0.1,0.7 0.4,1.3 0.9,1.8 0.6,0.6 1.3,0.9 2.1,0.9 0.8,0 1.5,-0.3 2.1,-0.9 0.6,-0.6 0.9,-1.3 0.9,-2.1 0,-0.8 -0.3,-1.5 -0.9,-2.1 C 87.6,52.7 87,52.3 86.3,52 z"
       id="path3215"
       style="fill:#dddddd;fill-opacity:1" /><path
       inkscape:connector-curvature="0"
       class="st0"
       d="M 92,46.5 V 59 H 91.3 V 46.5 H 92 z"
       id="path3217"
       style="fill:#dddddd;fill-opacity:1" /><path
       inkscape:connector-curvature="0"
       class="st0"
       d="M 97.2,47.2 V 59 H 96.5 V 47.2 h -3.2 v -0.7 h 7 v 0.7 h -3.1 z"
       id="path3219"
       style="fill:#dddddd;fill-opacity:1" /><path
       inkscape:connector-curvature="0"
       class="st0"
       d="m 107.8,46.5 v 0.7 h -5.5 v 5.2 h 5.5 V 53 h -5.5 v 5.2 h 5.5 v 0.7 h -6.2 V 46.5 h 6.2 z"
       id="path3221"
       style="fill:#dddddd;fill-opacity:1" /><path
       inkscape:connector-curvature="0"
       class="st0"
       d="m 116.6,46.5 c 2.1,0 3.6,0.6 4.8,1.7 1.2,1.3 1.9,2.8 1.9,4.5 0,1.8 -0.6,3.3 -1.9,4.5 -1.1,1.1 -2.7,1.7 -4.8,1.7 h -2.3 V 46.5 h 2.3 z m -1.6,0.7 v 11 h 1.6 c 1.8,0 3.2,-0.5 4.2,-1.5 1.1,-1.1 1.7,-2.4 1.7,-4 0,-1.6 -0.6,-2.9 -1.7,-4 -1,-1 -2.4,-1.5 -4.2,-1.5 H 115 z"
       id="path3223"
       style="fill:#dddddd;fill-opacity:1" /><path
       inkscape:connector-curvature="0"
       class="st0"
       d="m 131,46.5 v 0.7 h -5.5 v 5.2 H 131 V 53 h -5.5 v 5.2 h 5.5 v 0.7 h -6.2 V 46.5 h 6.2 z"
       id="path3225"
       style="fill:#dddddd;fill-opacity:1" /><path
       inkscape:connector-curvature="0"
       class="st0"
       d="m 136.4,52 c -0.9,-0.3 -1.6,-0.7 -2.1,-1.2 -0.5,-0.5 -0.8,-1.1 -0.8,-1.9 0,-0.7 0.3,-1.3 0.8,-1.9 0.5,-0.5 1.1,-0.8 1.9,-0.8 0.7,0 1.3,0.3 1.9,0.8 0.3,0.3 0.5,0.6 0.6,0.9 l -0.6,0.2 c -0.1,-0.3 -0.2,-0.5 -0.5,-0.7 -0.4,-0.4 -0.8,-0.6 -1.4,-0.6 -0.5,0 -1,0.2 -1.4,0.6 -0.4,0.4 -0.6,0.8 -0.6,1.4 0,0.5 0.2,1 0.6,1.4 0.4,0.3 0.8,0.7 1.5,1 1,0.3 1.8,0.8 2.5,1.5 0.7,0.7 1.1,1.6 1.1,2.6 0,1 -0.4,1.9 -1.1,2.6 -0.7,0.7 -1.6,1.1 -2.6,1.1 -1,0 -1.9,-0.4 -2.6,-1.1 -0.6,-0.6 -0.9,-1.2 -1,-2 l 0.7,-0.2 c 0.1,0.7 0.4,1.3 0.9,1.8 0.6,0.6 1.3,0.9 2.1,0.9 0.8,0 1.5,-0.3 2.1,-0.9 0.6,-0.6 0.9,-1.3 0.9,-2.1 0,-0.8 -0.3,-1.5 -0.9,-2.1 -0.7,-0.6 -1.3,-1 -2,-1.3 z"
       id="path3227"
       style="fill:#dddddd;fill-opacity:1" /><path
       inkscape:connector-curvature="0"
       class="st0"
       d="m 146.5,54.6 v 4.3 h -0.7 V 46.5 h 3.3 c 1,0.1 1.8,0.5 2.4,1.2 0.8,0.8 1.2,1.8 1.2,2.9 0,1.1 -0.4,2.1 -1.2,2.9 -0.8,0.8 -1.8,1.2 -2.9,1.2 l -2.1,-0.1 0,0 z m 0,-7.4 v 6.7 h 2.1 c 0.9,0 1.7,-0.3 2.4,-1 0.7,-0.7 1,-1.5 1,-2.4 0,-0.9 -0.3,-1.7 -1,-2.4 -0.7,-0.7 -1.4,-1 -2.4,-1 l -2.1,0.1 0,0 z"
       id="path3229"
       style="fill:#dddddd;fill-opacity:1" /><path
       inkscape:connector-curvature="0"
       class="st0"
       d="m 157.4,46.5 4.5,12.5 h -0.7 l -2,-5.5 h -4.3 l -2,5.5 h -0.7 l 4.6,-12.5 h 0.6 z m 1.5,6.3 -1.9,-5.2 -1.9,5.2 3.8,0 0,0 z"
       id="path3231"
       style="fill:#dddddd;fill-opacity:1" /><path
       inkscape:connector-curvature="0"
       class="st0"
       d="m 166.8,52 c -0.9,-0.3 -1.6,-0.7 -2.1,-1.2 -0.5,-0.5 -0.8,-1.1 -0.8,-1.9 0,-0.7 0.3,-1.3 0.8,-1.9 0.5,-0.5 1.1,-0.8 1.9,-0.8 0.7,0 1.3,0.3 1.9,0.8 0.3,0.3 0.5,0.6 0.6,0.9 l -0.6,0.2 c -0.1,-0.3 -0.2,-0.5 -0.5,-0.7 -0.4,-0.4 -0.8,-0.6 -1.4,-0.6 -0.5,0 -1,0.2 -1.4,0.6 -0.4,0.4 -0.6,0.8 -0.6,1.4 0,0.5 0.2,1 0.6,1.4 0.4,0.3 0.8,0.7 1.5,1 1,0.3 1.8,0.8 2.5,1.5 0.7,0.7 1.1,1.6 1.1,2.6 0,1 -0.4,1.9 -1.1,2.6 -0.7,0.7 -1.6,1.1 -2.6,1.1 -1,0 -1.9,-0.4 -2.6,-1.1 -0.6,-0.6 -0.9,-1.2 -1,-2 l 0.7,-0.2 c 0.1,0.7 0.4,1.3 0.9,1.8 0.6,0.6 1.3,0.9 2.1,0.9 0.8,0 1.5,-0.3 2.1,-0.9 0.6,-0.6 0.9,-1.3 0.9,-2.1 0,-0.8 -0.3,-1.5 -0.9,-2.1 -0.6,-0.6 -1.3,-1 -2,-1.3 z"
       id="path3233"
       style="fill:#dddddd;fill-opacity:1" /><path
       inkscape:connector-curvature="0"
       class="st0"
       d="m 175.1,52 c -0.9,-0.3 -1.6,-0.7 -2.1,-1.2 -0.5,-0.5 -0.8,-1.1 -0.8,-1.9 0,-0.7 0.3,-1.3 0.8,-1.9 0.5,-0.5 1.1,-0.8 1.9,-0.8 0.7,0 1.3,0.3 1.9,0.8 0.3,0.3 0.5,0.6 0.6,0.9 l -0.6,0.2 c -0.1,-0.3 -0.2,-0.5 -0.5,-0.7 -0.4,-0.4 -0.8,-0.6 -1.4,-0.6 -0.6,0 -1,0.2 -1.4,0.6 -0.4,0.4 -0.6,0.8 -0.6,1.4 0,0.5 0.2,1 0.6,1.4 0.4,0.3 0.8,0.7 1.5,1 1,0.3 1.8,0.8 2.5,1.5 0.7,0.7 1.1,1.6 1.1,2.6 0,1 -0.4,1.9 -1.1,2.6 -0.7,0.7 -1.6,1.1 -2.6,1.1 -1,0 -1.9,-0.4 -2.6,-1.1 -0.6,-0.6 -0.9,-1.2 -1,-2 l 0.7,-0.2 c 0.1,0.7 0.4,1.3 0.9,1.8 0.6,0.6 1.3,0.9 2.1,0.9 0.8,0 1.5,-0.3 2.1,-0.9 0.6,-0.6 0.9,-1.3 0.9,-2.1 0,-0.8 -0.3,-1.5 -0.9,-2.1 -0.6,-0.6 -1.3,-1 -2,-1.3 z"
       id="path3235"
       style="fill:#dddddd;fill-opacity:1" /><path
       inkscape:connector-curvature="0"
       class="st0"
       d="M 180.8,46.5 V 59 h -0.7 V 46.5 h 0.7 z"
       id="path3237"
       style="fill:#dddddd;fill-opacity:1" /><path
       inkscape:connector-curvature="0"
       class="st0"
       d="m 193.3,48.2 c 1.3,1.3 1.9,2.8 1.9,4.5 0,1.8 -0.6,3.3 -1.9,4.5 -1.2,1.3 -2.8,1.9 -4.5,1.9 -1.8,0 -3.3,-0.6 -4.5,-1.9 -1.3,-1.2 -1.9,-2.8 -1.9,-4.5 0,-1.8 0.6,-3.3 1.9,-4.5 1.2,-1.2 2.8,-1.9 4.5,-1.9 1.8,0 3.3,0.6 4.5,1.9 z M 188.8,47 c -1.6,0 -2.9,0.6 -4,1.7 -1.1,1.1 -1.7,2.4 -1.7,4 0,1.6 0.6,2.9 1.7,4 1.1,1.1 2.4,1.7 4,1.7 1.6,0 2.9,-0.6 4,-1.7 1.1,-1.1 1.7,-2.5 1.7,-4 0,-1.6 -0.6,-2.9 -1.7,-4 -1.1,-1.1 -2.4,-1.7 -4,-1.7 z"
       id="path3239"
       style="fill:#dddddd;fill-opacity:1" /><path
       inkscape:connector-curvature="0"
       class="st0"
       d="m 197.6,46.5 8.3,11.6 V 46.5 h 0.7 V 59 h -1.1 L 197.4,47.7 V 59 h -0.7 V 46.5 h 0.9 z"
       id="path3241"
       style="fill:#dddddd;fill-opacity:1" /><path
       inkscape:connector-curvature="0"
       class="st0"
       d="m 209.4,46.5 8.3,11.6 V 46.5 h 0.7 V 59 h -1.1 L 209.2,47.7 V 59 h -0.7 V 46.5 h 0.9 z"
       id="path3243"
       style="fill:#dddddd;fill-opacity:1" /><path
       inkscape:connector-curvature="0"
       class="st0"
       d="m 226.6,46.5 v 0.7 h -5.5 v 5.2 h 5.5 V 53 h -5.5 v 5.2 h 5.5 v 0.7 h -6.2 V 46.5 h 6.2 z m -1.4,-2.4 -1.9,1.5 h -0.7 l 1.3,-1.5 h 1.3 z"
       id="path3245"
       style="fill:#dddddd;fill-opacity:1" /><path
       inkscape:connector-curvature="0"
       class="st0"
       d="m 231.9,52 c -0.9,-0.3 -1.6,-0.7 -2.1,-1.2 -0.5,-0.5 -0.8,-1.1 -0.8,-1.9 0,-0.7 0.3,-1.3 0.8,-1.9 0.5,-0.5 1.1,-0.8 1.9,-0.8 0.7,0 1.3,0.3 1.9,0.8 0.3,0.3 0.5,0.6 0.6,0.9 l -0.6,0.2 c -0.1,-0.3 -0.2,-0.5 -0.5,-0.7 -0.4,-0.4 -0.8,-0.6 -1.4,-0.6 -0.5,0 -1,0.2 -1.4,0.6 -0.4,0.4 -0.6,0.8 -0.6,1.4 0,0.5 0.2,1 0.6,1.4 0.4,0.3 0.8,0.7 1.5,1 1,0.3 1.8,0.8 2.5,1.5 0.7,0.7 1.1,1.6 1.1,2.6 0,1 -0.4,1.9 -1.1,2.6 -0.7,0.7 -1.6,1.1 -2.6,1.1 -1,0 -1.9,-0.4 -2.6,-1.1 -0.6,-0.6 -0.9,-1.2 -1,-2 l 0.7,-0.2 c 0.1,0.7 0.4,1.3 0.9,1.8 0.6,0.6 1.3,0.9 2.1,0.9 0.8,0 1.5,-0.3 2.1,-0.9 0.6,-0.6 0.9,-1.3 0.9,-2.1 0,-0.8 -0.3,-1.5 -0.9,-2.1 -0.6,-0.6 -1.2,-1 -2,-1.3 z"
       id="path3247"
       style="fill:#dddddd;fill-opacity:1" /><path
       inkscape:connector-curvature="0"
       class="st0"
       d="m 243.7,46.5 c 2,0 3.6,0.6 4.8,1.7 1.2,1.3 1.9,2.8 1.9,4.5 0,1.8 -0.6,3.3 -1.9,4.5 -1.1,1.1 -2.7,1.7 -4.8,1.7 h -2.3 V 46.5 h 2.3 z m -1.6,0.7 v 11 h 1.6 c 1.8,0 3.2,-0.5 4.2,-1.5 1.1,-1.1 1.7,-2.4 1.7,-4 0,-1.6 -0.6,-2.9 -1.7,-4 -1,-1 -2.4,-1.5 -4.2,-1.5 h -1.6 z"
       id="path3249"
       style="fill:#dddddd;fill-opacity:1" /><path
       inkscape:connector-curvature="0"
       class="st0"
       d="m 252.3,47.8 c -0.1,0 -0.2,-0.1 -0.3,-0.2 -0.1,-0.1 -0.2,-0.3 -0.2,-0.5 0,-0.2 0.1,-0.4 0.2,-0.5 0.1,-0.1 0.3,-0.2 0.5,-0.2 0.2,0 0.4,0.1 0.5,0.2 0.1,0.1 0.2,0.3 0.2,0.5 0,0.1 0,0.2 -0.1,0.3 l -0.8,1.5 h -0.5 l 0.5,-1.1 z"
       id="path3251"
       style="fill:#dddddd;fill-opacity:1" /><path
       inkscape:connector-curvature="0"
       class="st0"
       d="m 258.9,46.5 4.5,12.5 h -0.7 l -2,-5.5 h -4.3 l -2,5.5 h -0.7 l 4.6,-12.5 h 0.6 z m 1.5,6.3 -1.9,-5.2 -1.9,5.2 h 3.8 z"
       id="path3253"
       style="fill:#dddddd;fill-opacity:1" /><path
       inkscape:connector-curvature="0"
       class="st0"
       d="m 265.3,46.5 8.3,11.6 V 46.5 h 0.7 V 59 h -1.1 L 265.1,47.7 V 59 h -0.7 V 46.5 h 0.9 z"
       id="path3255"
       style="fill:#dddddd;fill-opacity:1" /><path
       inkscape:connector-curvature="0"
       class="st0"
       d="M 277,46.5 V 59 h -0.7 V 46.5 h 0.7 z"
       id="path3257"
       style="fill:#dddddd;fill-opacity:1" /><path
       inkscape:connector-curvature="0"
       class="st0"
       d="M 290,46.5 V 59 h -0.7 V 47.2 l -4.8,6.3 -4.8,-6.3 V 58.9 H 279 V 46.5 h 1 l 4.5,5.9 4.5,-5.9 h 1 z"
       id="path3259"
       style="fill:#dddddd;fill-opacity:1" /><path
       inkscape:connector-curvature="0"
       class="st0"
       d="m 298,46.5 v 0.7 h -5.5 v 5.2 H 298 V 53 h -5.5 v 5.2 h 5.5 v 0.7 h -6.2 V 46.5 h 6.2 z"
       id="path3261"
       style="fill:#dddddd;fill-opacity:1" /><path
       inkscape:connector-curvature="0"
       class="st0"
       d="m 303.4,52 c -0.9,-0.3 -1.6,-0.7 -2.1,-1.2 -0.5,-0.5 -0.8,-1.1 -0.8,-1.9 0,-0.7 0.3,-1.3 0.8,-1.9 0.5,-0.5 1.1,-0.8 1.9,-0.8 0.7,0 1.3,0.3 1.9,0.8 0.3,0.3 0.5,0.6 0.6,0.9 l -0.6,0.2 c -0.1,-0.3 -0.2,-0.5 -0.5,-0.7 -0.4,-0.4 -0.8,-0.6 -1.4,-0.6 -0.5,0 -1,0.2 -1.4,0.6 -0.4,0.4 -0.6,0.8 -0.6,1.4 0,0.5 0.2,1 0.6,1.4 0.4,0.3 0.8,0.7 1.5,1 1,0.3 1.8,0.8 2.5,1.5 0.7,0.7 1.1,1.6 1.1,2.6 0,1 -0.4,1.9 -1.1,2.6 -0.7,0.7 -1.6,1.1 -2.6,1.1 -1,0 -1.9,-0.4 -2.6,-1.1 -0.6,-0.6 -0.9,-1.2 -1,-2 l 0.7,-0.2 c 0.1,0.7 0.4,1.3 0.9,1.8 0.6,0.6 1.3,0.9 2.1,0.9 0.8,0 1.5,-0.3 2.1,-0.9 0.6,-0.6 0.9,-1.3 0.9,-2.1 0,-0.8 -0.3,-1.5 -0.9,-2.1 -0.6,-0.6 -1.3,-1 -2,-1.3 z"
       id="path3263"
       style="fill:#dddddd;fill-opacity:1" /></g><path
     inkscape:connector-curvature="0"
     class="st0"
     d="m 202.10001,21.100002 v 5.500001 h -11.7 v -5.500001 h 11.7 z"
     id="path3277"
     style="fill:#dddddd;fill-opacity:1" /><path
     inkscape:connector-curvature="0"
     class="st0"
     d="m 230.20001,39.000003 c -1.7,0.7 -5.3,1.4 -8.2,1.4 -4.5,0 -7.9,-1.3 -10.6,-3.9 -3.4,-3.3 -5.2,-9.1 -5.1,-15.900001 0.2,-14.4000002 8.4,-20.30000011 16.8,-20.30000011 3,0 5.2,0.60000003 6.5,1.19999991 l -1.4,6.6 c -1.1,-0.6 -2.6,-0.9 -4.5,-0.9 -5.2,0 -9.4,3.6000002 -9.4,13.9000002 0,9.500001 3.7,12.900001 7.3,12.900001 0.7,0 1.2,-0.1 1.5,-0.2 v -9.6 h -3.5 v -6.300001 h 10.6 l 0,21.100001 0,0 z"
     id="path3279"
     style="fill:#dddddd;fill-opacity:1" /><path
     inkscape:connector-curvature="0"
     class="st0"
     d="m 242.20001,31.100003 -1.8,9 h -7.4 l 8.6,-39.50000108 h 9.2 l 7.7,39.50000108 h -7.5 l -1.7,-9 h -7.1 z m 6.4,-6 -1.3,-8.300001 c -0.4,-2.4 -0.9,-6.3 -1.3,-9.0000002 h -0.2 c -0.4,2.6000002 -1,6.7000002 -1.4,9.0000002 l -1.5,8.200001 c 0,0.1 5.7,0.1 5.7,0.1 z"
     id="path3281"
     style="fill:#dddddd;fill-opacity:1" /><path
     inkscape:connector-curvature="0"
     class="st0"
     d="m 264.10001,7.7000018 h -7 V 0.60000192 h 21.7 V 7.7000018 h -7 V 40.100003 h -7.7 l 0,-32.4000012 0,0 z"
     id="path3283"
     style="fill:#dddddd;fill-opacity:1" /><path
     inkscape:connector-curvature="0"
     class="st0"
     d="m 299.60001,22.700002 h -9 v 10.700001 h 10.2 v 6.7 h -17.9 V 0.60000192 h 17.1 V 7.3000018 h -9.5 v 9.1000002 h 9 l 0.1,6.3 0,0 z"
     id="path3285"
     style="fill:#dddddd;fill-opacity:1" /></g><g
   inkscape:groupmode="layer"
   id="layer1"
   inkscape:label="Over"
   style="display:inline"><path
   inkscape:connector-curvature="0"
   class="st0"
   d="m 24.223126,21.200001 -7,0 0,-7.100001 c 5.258958,0 10.517917,1e-6 15.776875,0 l 2,7.097656 1,0 -2,-7.097656 4.923125,0 0,7.100001 -7,0 0,32.400002 -7.7,0 z"
   id="path3283-1"
   style="fill:#ff0000;display:inline"
   sodipodi:nodetypes="ccccccccccccc" /><path
   inkscape:connector-curvature="0"
   class="st0"
   d="M 27.600003,-4.4030734e-6 C 12.400001,-4.4030734e-6 0,12.399998 0,27.8 0,36 3.4999999,43.4 9.2,48.500002 L 10.900001,41.3 C 7.9,37.6 6.2,32.9 6.2,27.8 6.2,15.899998 15.800003,6.1999956 27.700003,6.1999956 c 11.900002,0 21.500002,9.7000024 21.500002,21.6000044 0,5 -1.7,9.6 -4.6,13.3 l 1.8,7.200002 c 5.5,-5.100002 8.9,-12.400002 8.9,-20.500002 0,-15.400002 -12.4,-27.8000044030734 -27.700002,-27.8000044030734 z"
   id="path3287-3"
   style="fill:#dddddd;fill-opacity:1;display:inline" /><path
   inkscape:connector-curvature="0"
   class="st0"
   d="m 87.050004,7.6999991 -7,0 0,-7.09999996 21.699996,0 0,7.09999996 -7,0 0,32.4000019 -7.699996,0 0,-32.4000019 z"
   id="path3283-6"
   style="fill:#ff0000;display:inline"
   inkscape:path-effect="#path-effect3532"
   inkscape:original-d="m 87.050004,7.6999992 h -7 V 0.59999928 H 101.75 V 7.6999992 h -7 V 40.100001 h -7.699996 l 0,-32.4000018 0,0 z" /><path
   inkscape:connector-curvature="0"
   class="st1"
   d="m 144.295,31.100001 -1.8,9 h -7.4 l 8.6,-39.50000221 h 9.2 L 160.59501,40.100001 H 153.195 l -1.7,-9 h -7.2 z m 6.4,-6 -1.3,-8.300002 c -0.4,-2.4 -0.9,-6.3 -1.3,-9.0000002 h -0.2 c -0.4,2.6000002 -1,6.7000002 -1.4,9.0000002 l -1.5,8.200002 h 5.7 z"
   id="path3267-9"
   style="fill:#ff0000;display:inline" /><text
   xml:space="preserve"
   style="font-size:40px;font-style:normal;font-weight:normal;line-height:125%;letter-spacing:0px;word-spacing:0px;fill:#000000;fill-opacity:1;stroke:none;font-family:Sans"
   x="93.25"
   y="40.599998"
   id="text3516"
   sodipodi:linespacing="125%"><tspan
     sodipodi:role="line"
     id="tspan3518"
     x="93.25"
     y="40.599998" /></text>

<text
   xml:space="preserve"
   style="font-size:72px;font-style:normal;font-variant:normal;font-weight:bold;font-stretch:normal;line-height:125%;letter-spacing:0px;word-spacing:0px;fill:#000000;fill-opacity:1;stroke:none;font-family:Utsaah;-inkscape-font-specification:Utsaah Bold"
   x="87"
   y="40.349998"
   id="text3520"
   sodipodi:linespacing="125%"><tspan
     sodipodi:role="line"
     id="tspan3522"
     x="87"
     y="40.349998" /></text>

<path
   style="fill:#ff0000;display:inline"
   d="m 107.63611,0.58927246 c 0.0612,12.76012554 -0.0579,26.62606354 -0.0325,39.38628554 l 7.32975,0.124443 0,-14.454083 3.64888,0 5.76578,14.36075 7.32975,-0.09333 -6.31987,-14.267418 c 0.7662,-0.60405 1.85763,-1.279372 2.68612,-2.234405 0.96234,-1.109335 1.63425,-2.519241 2.04007,-3.426873 1.04998,-2.348348 1.15079,-4.80522 1.15174,-6.661365 5.8e-4,-1.154312 -0.24017,-3.3468553 -1.05253,-5.2379157 -0.70231,-1.634908 -2.21296,-3.3686048 -2.65981,-3.796751 -0.44685,-0.4281461 -1.49287,-1.2714119 -2.836,-1.9579565 -1.16317,-0.5945549 -2.57223,-1.0495722 -3.72699,-1.2839419 -1.15478,-0.2343698 -5.17573,-0.47702226 -6.02714,-0.45743734 z m 7.38932,5.49593774 3.06439,0.045726 c 0,0 6.85476,0.1411325 6.75776,6.5913098 -0.0971,6.45018 -6.26541,6.633315 -6.26541,6.633315 l -3.64888,0 z"
   id="path3283-6-7"
   inkscape:connector-curvature="0"
   sodipodi:nodetypes="ccccccccsssszszcccczccc" /><path
   style="fill:#ff0000;display:inline"
   d="m 164.93468,0.41249928 c 0.0587,12.81721572 -0.0556,26.74519072 -0.0312,39.56250172 l 7.03125,0.125 0,-16.10634 3,-1e-6 c 0,0 2.85367,0.133158 5.10642,-0.735273 2.25274,-0.868432 3.10905,-1.854567 4.41764,-3.386047 1.30859,-1.53148 3.73553,-7.788789 0.80334,-13.9939537 -2.93219,-6.20516492 -13.3274,-5.4663867 -13.3274,-5.4663867 z m 7.08839,5.52050052 2.93959,0.045956 c 0,0 6.56807,0.361434 6.47497,6.4560492 -0.0931,6.094615 -6.44045,5.977495 -6.44045,5.977495 l -3,-5e-4 z"
   id="path3283-6-7-3"
   inkscape:connector-curvature="0"
   sodipodi:nodetypes="ccccczzzcccczccc" /><text
   xml:space="preserve"
   style="font-size:40px;font-style:normal;font-variant:normal;font-weight:normal;font-stretch:normal;line-height:125%;letter-spacing:0px;word-spacing:0px;fill:#000000;fill-opacity:1;stroke:none;font-family:Miriam;-inkscape-font-specification:Miriam"
   x="64.5"
   y="36.599998"
   id="text3695"
   sodipodi:linespacing="125%"><tspan
     sodipodi:role="line"
     id="tspan3697"
     x="64.5"
     y="36.599998" /></text>

<text
   xml:space="preserve"
   style="font-size:40px;font-style:normal;font-variant:normal;font-weight:normal;font-stretch:normal;line-height:125%;letter-spacing:0px;word-spacing:0px;fill:#000000;fill-opacity:1;stroke:none;font-family:Palatino Linotype;-inkscape-font-specification:Palatino Linotype"
   x="78"
   y="-16.9"
   id="text3699"
   sodipodi:linespacing="125%"><tspan
     sodipodi:role="line"
     id="tspan3701"
     x="78"
     y="-16.9" /></text>

</g></svg>